<svg width="1019" height="861" viewBox="0 0 1019 861" fill="none" xmlns="http://www.w3.org/2000/svg">
<path d="M-55.4532 503.551C-298.869 440.271 -196.319 213.293 -43.491 94.9987C41.2921 23.4473 -25.8397 -94.446 79.266 -183.04C184.372 -271.635 234.353 -63.8256 398.68 -197.364C563.006 -330.902 807.43 -78.2748 724.358 73.399C641.285 225.073 714.273 212.357 740.46 427.112C766.648 641.867 464.544 803.771 335.518 645.647C206.493 487.523 208.048 572.053 -55.4532 503.551Z" stroke="url(#paint0_linear_439_3329)" stroke-width="2"/>
<path d="M293.999 275.644C270.142 270.784 255.959 220.844 284.265 203.614C310.185 187.836 315.237 159.447 329.814 147.18C368.189 114.886 367.349 134.429 395.463 126.32C429.674 116.453 491.794 138.183 462.308 189.254C438.058 231.257 465.714 230.467 456.594 267.138C447.475 303.809 411.495 330.595 370.985 307.207C355.773 298.424 333.735 283.739 293.999 275.644Z" stroke="url(#paint1_linear_439_3329)" stroke-width="2"/>
<path d="M-24.7069 482.247C-248.163 424.278 -156.225 213.395 -14.7171 104.288C64.7148 37.8069 4.14527 -71.9497 101.021 -153.605C200.06 -237.082 245.422 -46.3873 397.365 -168.523C549.863 -290.818 777.714 -59.1816 699.513 83.3464C621.788 225.05 690.654 213.419 713.632 411.984C736.61 610.55 458.699 760.17 337.721 614.295C219.042 469.747 218.452 545.258 -24.7069 482.247Z" stroke="url(#paint2_linear_439_3329)" stroke-width="2"/>
<path d="M6.03913 460.944C-197.457 408.285 -116.131 213.497 14.0564 113.577C88.1371 52.1666 34.1298 -49.4531 122.776 -124.17C215.748 -202.528 256.49 -28.9488 396.05 -139.682C536.72 -250.734 747.997 -40.0883 674.668 93.294C602.29 225.028 667.036 214.48 686.804 396.857C706.572 579.233 452.854 716.57 339.922 582.943C231.59 451.972 228.856 518.463 6.03913 460.944Z" stroke="url(#paint3_linear_439_3329)" stroke-width="2"/>
<path d="M36.787 439.641C-146.749 392.293 -76.0354 213.599 42.8319 122.867C111.561 66.5267 64.1163 -26.9563 144.532 -94.7342C231.439 -167.974 267.56 -11.51 394.737 -110.84C523.578 -210.65 718.283 -20.9946 649.825 103.242C582.795 225.005 643.419 215.542 659.977 381.729C676.536 547.916 447.011 672.969 342.126 551.591C244.14 434.196 239.261 491.668 36.787 439.641Z" stroke="url(#paint4_linear_439_3329)" stroke-width="2"/>
<path d="M67.536 418.338C-96.0402 376.301 -35.9386 213.701 71.6084 132.157C134.987 80.8871 94.1039 -4.4591 166.29 -65.2981C247.13 -133.42 278.631 5.92916 393.426 -81.9984C510.437 -170.565 688.569 -1.90053 624.983 113.19C563.3 224.984 619.803 216.605 633.152 366.602C646.5 516.599 441.169 629.369 344.331 520.24C256.692 416.422 249.668 464.874 67.536 418.338Z" stroke="url(#paint5_linear_439_3329)" stroke-width="2"/>
<path d="M98.9853 397.439C-44.6312 360.714 4.8584 214.208 101.085 141.852C159.112 95.6519 124.792 18.4424 188.748 -35.4578C263.521 -98.4614 290.402 23.7726 392.814 -52.7523C497.997 -130.077 659.556 17.5977 600.841 123.543C544.505 225.366 596.888 218.072 607.027 351.879C617.165 485.687 436.027 586.173 347.236 489.293C269.944 399.051 260.775 438.484 98.9853 397.439Z" stroke="url(#paint6_linear_439_3329)" stroke-width="2"/>
<path d="M131.265 377.019C7.60798 345.604 46.4855 215.193 131.392 152.024C184.068 110.895 156.31 41.8223 212.036 -5.13907C280.743 -63.0245 303.004 42.0945 393.033 -23.0278C486.387 -89.1093 631.372 37.5745 577.529 134.374C526.541 226.227 574.803 220.017 581.732 337.635C588.661 455.253 431.715 543.456 350.971 458.824C284.026 382.159 272.712 412.572 131.265 377.019Z" stroke="url(#paint7_linear_439_3329)" stroke-width="2"/>
<path d="M163.591 356.625C59.8941 330.521 88.1596 216.204 161.746 162.223C209.071 126.164 187.874 65.228 235.371 25.2056C298.012 -27.5617 315.652 60.4423 393.298 6.72264C474.824 -48.1161 603.236 57.5771 554.264 145.231C508.624 227.114 552.764 221.987 556.484 323.416C560.203 424.845 427.451 500.765 354.753 428.382C298.154 365.293 284.696 386.686 163.591 356.625Z" stroke="url(#paint8_linear_439_3329)" stroke-width="2"/>
<path d="M195.984 336.268C112.247 315.475 129.901 217.252 192.167 172.459C234.14 141.47 219.506 88.6709 258.773 55.5873C315.347 7.93824 328.368 78.8271 393.631 36.5101C463.328 -7.08582 575.167 77.6168 531.066 156.124C490.773 228.038 530.793 223.996 531.302 309.235C531.812 394.474 423.253 458.11 358.603 397.976C312.35 348.464 296.747 360.837 195.984 336.268Z" stroke="url(#paint9_linear_439_3329)" stroke-width="2"/>
<path d="M228.477 315.965C164.699 300.483 171.741 218.355 222.687 182.749C259.309 156.83 251.237 112.168 282.274 86.0234C332.782 43.4925 341.182 97.2663 394.062 66.352C451.93 33.9988 547.196 97.7108 507.967 167.073C473.022 229.016 508.921 226.058 506.22 295.108C503.52 364.158 419.154 415.51 362.551 367.625C326.645 331.689 308.897 335.043 228.477 315.965Z" stroke="url(#paint10_linear_439_3329)" stroke-width="2"/>
<path d="M261.119 295.744C217.302 285.573 213.731 219.539 253.357 193.121C284.628 172.272 283.118 135.747 305.925 116.541C350.366 79.1282 354.146 115.787 394.644 96.2752C440.683 75.1649 519.376 117.886 485.019 178.102C455.421 230.076 487.198 228.202 481.288 281.062C475.378 333.923 415.205 372.992 366.649 337.355C341.09 314.996 321.197 309.33 261.119 295.744Z" stroke="url(#paint11_linear_439_3329)" stroke-width="2"/>
<defs>
<linearGradient id="paint0_linear_439_3329" x1="-28.1726" y1="-19.3388" x2="779.823" y2="447.157" gradientUnits="userSpaceOnUse">
<stop stop-color="#323232"/>
<stop offset="1" stop-color="#060606"/>
</linearGradient>
<linearGradient id="paint1_linear_439_3329" x1="302.259" y1="164.784" x2="464.836" y2="258.648" gradientUnits="userSpaceOnUse">
<stop stop-color="#323232"/>
<stop offset="1" stop-color="#060606"/>
</linearGradient>
<linearGradient id="paint2_linear_439_3329" x1="1.84886" y1="-2.5691" x2="750.132" y2="429.452" gradientUnits="userSpaceOnUse">
<stop stop-color="#323232"/>
<stop offset="1" stop-color="#060606"/>
</linearGradient>
<linearGradient id="paint3_linear_439_3329" x1="31.8701" y1="14.1993" x2="720.442" y2="411.747" gradientUnits="userSpaceOnUse">
<stop stop-color="#323232"/>
<stop offset="1" stop-color="#060606"/>
</linearGradient>
<linearGradient id="paint4_linear_439_3329" x1="61.8933" y1="30.9659" x2="690.756" y2="394.04" gradientUnits="userSpaceOnUse">
<stop stop-color="#323232"/>
<stop offset="1" stop-color="#060606"/>
</linearGradient>
<linearGradient id="paint5_linear_439_3329" x1="91.9178" y1="47.7303" x2="661.073" y2="376.332" gradientUnits="userSpaceOnUse">
<stop stop-color="#323232"/>
<stop offset="1" stop-color="#060606"/>
</linearGradient>
<linearGradient id="paint6_linear_439_3329" x1="121.943" y1="64.4916" x2="632.092" y2="359.026" gradientUnits="userSpaceOnUse">
<stop stop-color="#323232"/>
<stop offset="1" stop-color="#060606"/>
</linearGradient>
<linearGradient id="paint7_linear_439_3329" x1="151.972" y1="81.2489" x2="603.946" y2="342.196" gradientUnits="userSpaceOnUse">
<stop stop-color="#323232"/>
<stop offset="1" stop-color="#060606"/>
</linearGradient>
<linearGradient id="paint8_linear_439_3329" x1="182.004" y1="97.9995" x2="575.853" y2="325.388" gradientUnits="userSpaceOnUse">
<stop stop-color="#323232"/>
<stop offset="1" stop-color="#060606"/>
</linearGradient>
<linearGradient id="paint9_linear_439_3329" x1="212.042" y1="114.74" x2="547.837" y2="308.611" gradientUnits="userSpaceOnUse">
<stop stop-color="#323232"/>
<stop offset="1" stop-color="#060606"/>
</linearGradient>
<linearGradient id="paint10_linear_439_3329" x1="242.09" y1="131.464" x2="519.937" y2="291.879" gradientUnits="userSpaceOnUse">
<stop stop-color="#323232"/>
<stop offset="1" stop-color="#060606"/>
</linearGradient>
<linearGradient id="paint11_linear_439_3329" x1="272.155" y1="148.157" x2="492.222" y2="275.213" gradientUnits="userSpaceOnUse">
<stop stop-color="#323232"/>
<stop offset="1" stop-color="#060606"/>
</linearGradient>
</defs>
</svg>
